Coordinates
version=1
nRows=29
nColumns=30
inDegrees=yes

Units are S.I. units (second, meters, Newtons, ...)
Angles are in degrees.

endheader
time	floatyaw	floatroll	floatpitch	floatx	floaty	floatz	pro_sup_l	deviation_l	flexion_l	cmc_flexion_l	cmc_abduction_l	mp_flexion_l	ip_flexion_l	2mcp_flexion_l	2mcp_abduction_l	2pm_flexion_l	2md_flexion_l	3mcp_flexion_l	3mcp_abduction_l	3pm_flexion_l	3md_flexion_l	4mcp_flexion_l	4mcp_abduction_l	4pm_flexion_l	4md_flexion_l	5mcp_flexion_l	5mcp_abduction_l	5pm_flexion_l	5md_flexion_l
-0.995000	-160.147433	-5.066637	-73.570646	0.069645	-0.177153	-0.027296	92.810300	-0.888800	-1.762653	14.212593	-0.612860	-25.620481	-41.270789	32.729102	7.069908	42.076440	30.222050	27.077325	4.332276	44.916346	31.204889	15.646406	-4.570999	53.594864	37.879418	0.678732	-8.017039	63.040893	44.186333
-0.985000	-160.147433	-5.066637	-73.570646	0.069647	-0.177157	-0.027291	92.795052	-0.893386	-1.765688	14.187370	-0.576324	-25.638038	-41.267150	32.729319	7.060257	42.068896	30.171856	27.093419	4.331255	44.891680	31.169790	15.659825	-4.568727	53.573978	37.848914	0.693291	-8.022241	63.039141	44.189691
-0.975000	-160.147433	-5.066637	-73.570646	0.069654	-0.177166	-0.027284	92.782817	-0.893630	-1.769897	14.164341	-0.540130	-25.640175	-41.242994	32.718585	7.048921	42.067889	30.128227	27.099171	4.331297	44.868401	31.134268	15.669601	-4.565781	53.549864	37.814139	0.703039	-8.025990	63.034688	44.183626
-0.965000	-160.147433	-5.066637	-73.570646	0.069665	-0.177181	-0.027275	92.779223	-0.885572	-1.772307	14.145933	-0.519707	-25.632229	-41.210288	32.698299	7.037854	42.068265	30.093116	27.093143	4.332048	44.847866	31.101369	15.675310	-4.562456	53.519952	37.776908	0.710544	-8.027547	63.024528	44.166774
-0.955000	-160.147433	-5.066637	-73.570646	0.069678	-0.177201	-0.027263	92.786267	-0.867960	-1.769920	14.131972	-0.524472	-25.621519	-41.183180	32.673991	7.028580	42.063336	30.063934	27.077511	4.332625	44.830582	31.073115	15.678367	-4.559049	53.481719	37.739767	0.720000	-8.026885	63.006275	44.143147
-0.945000	-160.147433	-5.066637	-73.570646	0.069691	-0.177226	-0.027250	92.801690	-0.842633	-1.761362	14.120301	-0.552605	-25.613110	-41.170728	32.652691	7.021623	42.049529	30.035989	27.056487	4.331971	44.817584	31.050228	15.680912	-4.555641	53.435003	37.705367	0.735912	-8.024694	62.978696	44.120417
-0.935000	-160.147433	-5.066637	-73.570646	0.069703	-0.177252	-0.027233	92.820562	-0.813737	-1.747601	14.108418	-0.591619	-25.608363	-41.173394	32.639090	7.016030	42.029447	30.005800	27.034043	4.329242	44.810680	31.031139	15.684014	-4.551885	53.382803	37.674368	0.760810	-8.021992	62.942399	44.104920
-0.925000	-160.147433	-5.066637	-73.570646	0.069712	-0.177275	-0.027214	92.838444	-0.785878	-1.731369	14.094980	-0.623682	-25.606366	-41.184489	32.632641	7.009454	42.011539	29.973200	27.012332	4.324148	44.811371	31.011201	15.687001	-4.547054	53.329817	37.643486	0.794113	-8.019513	62.899828	44.096670
-0.915000	-160.147433	-5.066637	-73.570646	0.069720	-0.177292	-0.027193	92.854526	-0.761909	-1.715877	14.080351	-0.632121	-25.606481	-41.195042	32.627562	6.999153	42.006615	29.941299	26.991690	4.317125	44.819597	30.983784	15.689009	-4.540421	53.279778	37.606022	0.833829	-8.017379	62.854193	44.088383
-0.905000	-160.147433	-5.066637	-73.570646	0.069726	-0.177301	-0.027170	92.872659	-0.741619	-1.703738	14.066266	-0.605972	-25.610095	-41.199230	32.615936	6.983519	42.023047	29.914942	26.971759	4.309281	44.833523	30.943777	15.691546	-4.531772	53.233537	37.555694	0.880019	-8.015379	62.808045	44.069965
-0.895000	-160.147433	-5.066637	-73.570646	0.069730	-0.177303	-0.027147	92.899239	-0.722330	-1.696483	14.055333	-0.541955	-25.620511	-41.197619	32.591828	6.963146	42.062821	29.898872	26.952278	4.302066	44.850295	30.891615	15.699343	-4.521680	53.189012	37.491533	0.936588	-8.013619	62.762721	44.035684
-0.885000	-160.147433	-5.066637	-73.570646	0.069730	-0.177301	-0.027123	92.939168	-0.701187	-1.694345	14.050892	-0.445097	-25.641114	-41.196924	32.553470	6.940687	42.119911	29.896252	26.932575	4.296735	44.866541	30.834511	15.717716	-4.511346	53.142362	37.419857	1.008877	-8.013009	62.719152	43.988896
-0.875000	-160.147433	-5.066637	-73.570646	0.069725	-0.177303	-0.027100	92.992733	-0.677645	-1.695802	14.056959	-0.329016	-25.672955	-41.206832	32.502221	6.919731	42.181443	29.907346	26.910301	4.293784	44.877612	30.782894	15.747632	-4.502082	53.088904	37.351004	1.097930	-8.015074	62.679180	43.940865
-0.865000	-160.147433	-5.066637	-73.570646	0.069712	-0.177318	-0.027078	93.055652	-0.654403	-1.696920	14.077235	-0.215493	-25.713138	-41.235451	32.440010	6.903516	42.231296	29.928159	26.881160	4.292671	44.876008	30.743411	15.782072	-4.494773	53.023248	37.292401	1.195228	-8.020998	62.646219	43.904615
-0.855000	-160.147433	-5.066637	-73.570646	0.069695	-0.177354	-0.027057	93.121964	-0.636106	-1.691394	14.112610	-0.132022	-25.754610	-41.284955	32.368692	6.894066	42.255291	29.949735	26.841173	4.292056	44.851054	30.712841	15.807144	-4.489647	52.939803	37.242782	1.282065	-8.030493	62.624732	43.888103
-0.845000	-160.147433	-5.066637	-73.570646	0.069675	-0.177414	-0.027039	93.187393	-0.626596	-1.672368	14.158371	-0.106227	-25.787118	-41.348943	32.293000	6.891820	42.246668	29.959654	26.790919	4.290510	44.791994	30.677674	15.808450	-4.486489	52.835273	37.192181	1.335439	-8.041364	62.618682	43.890827
-0.835000	-160.147433	-5.066637	-73.570646	0.069658	-0.177496	-0.027026	93.250903	-0.626422	-1.635883	14.203903	-0.157376	-25.799192	-41.413072	32.224492	6.895709	42.209909	29.946591	26.738697	4.287284	44.694708	30.621125	15.779228	-4.485070	52.713244	37.128718	1.338484	-8.050250	62.629376	43.904946
-0.825000	-160.147433	-5.066637	-73.570646	0.069650	-0.177588	-0.027019	93.314005	-0.632057	-1.584001	14.236488	-0.287474	-25.781541	-41.459839	32.181214	6.903808	42.160710	29.906828	26.699061	4.282700	44.569041	30.534572	15.724829	-4.485515	52.588454	37.048567	1.289912	-8.054208	62.653546	43.919144
-0.815000	-160.147433	-5.066637	-73.570646	0.069652	-0.177675	-0.027020	93.378883	-0.637369	-1.525052	14.247119	-0.476326	-25.731827	-41.476250	32.180307	6.914665	42.121030	29.849560	26.686111	4.277960	44.441772	30.426969	15.660247	-4.488335	52.486940	36.963015	1.206367	-8.052253	62.682852	43.922945
-0.805000	-160.147433	-5.066637	-73.570646	0.069667	-0.177742	-0.027027	93.446550	-0.636695	-1.470120	14.233881	-0.684569	-25.658913	-41.460710	32.227257	6.928600	42.110681	29.797565	26.705219	4.274579	44.351494	30.326356	15.602218	-4.494137	52.439680	36.897938	1.115145	-8.046076	62.705806	43.910335
-0.795000	-160.147433	-5.066637	-73.570646	0.069692	-0.177777	-0.027036	93.515631	-0.627969	-1.427658	14.200505	-0.865268	-25.583027	-41.424847	32.309791	6.947734	42.139186	29.781364	26.748743	4.273761	44.335791	30.271515	15.561157	-4.503157	52.471021	36.885082	1.040879	-8.039510	62.712086	43.882180
-0.785000	-160.147433	-5.066637	-73.570646	0.069725	-0.177775	-0.027045	93.582116	-0.614182	-1.399777	14.152497	-0.979950	-25.529339	-41.388454	32.401853	6.974139	42.201936	29.827973	26.798912	4.275989	44.415600	30.296751	15.537806	-4.514874	52.586941	36.948697	0.994227	-8.036786	62.697514	43.846579
-0.775000	-160.147433	-5.066637	-73.570646	0.069762	-0.177741	-0.027049	93.640337	-0.602099	-1.382679	14.095253	-1.012104	-25.516719	-41.369961	32.475838	7.007364	42.282547	29.948466	26.836387	4.280907	44.584167	30.416295	15.525860	-4.527953	52.769397	37.093509	0.969597	-8.040303	62.666895	43.816155
-0.765000	-160.147433	-5.066637	-73.570646	0.069796	-0.177684	-0.027050	93.684875	-0.598705	-1.370859	14.035577	-0.971905	-25.547811	-41.377859	32.515552	7.043566	42.360145	30.130497	26.849533	4.287474	44.806962	30.615791	15.517857	-4.540616	52.980803	37.299935	0.952569	-8.049132	62.632547	43.802697
-0.755000	-160.147433	-5.066637	-73.570646	0.069823	-0.177613	-0.027052	93.712199	-0.607376	-1.362009	13.983778	-0.890081	-25.606987	-41.407910	32.522311	7.077217	42.417854	30.340693	26.839147	4.294304	45.034001	30.855745	15.510075	-4.551286	53.177616	37.529584	0.930893	-8.059291	62.608884	43.811676
-0.745000	-160.147433	-5.066637	-73.570646	0.069840	-0.177536	-0.027059	93.721007	-0.626084	-1.359156	13.952546	-0.804181	-25.668072	-41.447118	32.511509	7.104036	42.448290	30.536946	26.816346	4.300141	45.219067	31.086091	15.503584	-4.559173	53.326659	37.739083	0.901320	-8.065777	62.605973	43.839812
-0.735000	-160.147433	-5.066637	-73.570646	0.069847	-0.177455	-0.027079	93.711646	-0.648628	-1.368598	13.951794	-0.744136	-25.707346	-41.481206	32.502874	7.122758	42.453726	30.684457	26.795453	4.304292	45.335940	31.264813	15.501598	-4.564474	53.415850	37.895541	0.868992	-8.065125	62.625568	43.876865
-0.725000	-160.147433	-5.066637	-73.570646	0.069847	-0.177371	-0.027111	93.685909	-0.667888	-1.395139	13.982494	-0.723653	-25.714268	-41.500826	32.510494	7.134655	42.441796	30.767087	26.786358	4.306880	45.383752	31.371440	15.505625	-4.568118	53.454324	37.986113	0.841827	-8.057051	62.661283	43.910173
-0.715000	-160.147433	-5.066637	-73.570646	0.069844	-0.177286	-0.027155	93.647689	-0.679060	-1.437863	14.033965	-0.740027	-25.694345	-41.503585	32.537416	7.141642	42.420190	30.789162	26.790410	4.308739	45.380691	31.409922	15.513176	-4.571236	53.463360	38.018050	0.824617	-8.044373	62.702134	43.929408
